# xmcd
#
# Track frame offsets:
#	150
#	21690
#	44935
#	57647
#	81777
#	96700
#	111632
#	129930
#	151007
#	162962
#	175410
#
# Disc length: 2688 seconds
# Revision: 4
# Processed by: cddbd v1.5.2PL0 Copyright (c) Steve Scherf et al.
# Submitted via: dBpowerAMP V12.0
#
DISCID=a30a7e0b
DTITLE=양방언 - Only Heaven Knows
DYEAR=2004
DGENRE=New Age
TTITLE0=Neo Symphonia
TTITLE1=The Rainbowchaser Of Ordos
TTITLE2=Faraway Thought
TTITLE3=Prince Of "Cheju"
TTITLE4=St. Bohemian's Dance
TTITLE5=Little Wing, Vanishing Dreams
TTITLE6=A Tragedy Of Medusa
TTITLE7=In Our Hands
TTITLE8=Treasures
TTITLE9=Long Way Home
TTITLE10=Golden Rose
EXTD=
EXTT0=
EXTT1=
EXTT2=
EXTT3=
EXTT4=
EXTT5=
EXTT6=
EXTT7=
EXTT8=
EXTT9=
EXTT10=
PLAYORDER=
